<svg xmlns="http://www.w3.org/2000/svg" viewBox="0 0 497 497" width="497" height="497">
	<defs>
		<filter id="flt1"> <feColorMatrix in="SourceGraphic" type="matrix" values="0 0 0 0 0.678   0 0 0 0 0.678   0 0 0 0 0.678   0 0 0 1 0" /> </filter>
	</defs>
	<style>
		tspan { white-space:pre }
		.shp0 { filter: url(#flt1);fill: #adadad } 
		.shp1 { fill: #ffffff } 
	</style>
	<g id="Layer">
		<path id="Layer" class="shp0" d="M497,248.08c0,-137.02 -111.07,-248.08 -248.08,-248.08c-137.01,0 -248.08,111.06 -248.08,248.08c0,137 111.07,248.07 248.08,248.07c137.01,0 248.08,-111.07 248.08,-248.07z" />
		<path id="Layer" class="shp1" d="M277.04,248.08l72.53,-84.2c7.91,-9.18 6.88,-23.04 -2.31,-30.95c-9.17,-7.9 -23.03,-6.88 -30.95,2.31l-68.24,79.21l-68.23,-79.21c-7.91,-9.19 -21.77,-10.22 -30.95,-2.31c-9.19,7.91 -10.21,21.77 -2.3,30.95l72.52,84.2l-72.52,84.19c-7.91,9.18 -6.88,23.04 2.3,30.95c4.14,3.57 9.24,5.32 14.32,5.32c6.16,0 12.29,-2.59 16.64,-7.62l68.23,-79.21l68.24,79.21c4.34,5.04 10.47,7.62 16.64,7.62c5.07,0 10.17,-1.75 14.31,-5.32c9.19,-7.91 10.22,-21.77 2.31,-30.95z" />
	</g>
</svg>